# xmcd CD database file
#
# Track frame offsets:
#	150
#	14548
#	28103
#	40220
#	55840
#	76640
#	92104
#	105718
#	124574
#
# Disc length: 1806 seconds
#
# Revision: 0
# Processed by: cddbd v1.5.1PL2 Copyright (c) Steve Scherf et al.
# Submitted via: CDex 1.40Release
#
DISCID=66070c09
DTITLE=The Phoenix - The Phoenix
DYEAR=2006
DGENRE=Country
TTITLE0=I Just Wanna Dance With You
TTITLE1=Working For The Man
TTITLE2=Reuben James
TTITLE3=Two Of A Kind
TTITLE4=Help Me Make Through The Night
TTITLE5=Six Days On The Road
TTITLE6=Frankies Man Johnny
TTITLE7=Stand By Me
TTITLE8=Save The Last Dance For Me
EXTD=YEAR: 2006 ID3G: 2
EXTT0=
EXTT1=
EXTT2=
EXTT3=
EXTT4=
EXTT5=
EXTT6=
EXTT7=
EXTT8=
PLAYORDER=
